<svg id="Layer_3" enable-background="new 0 0 64 64" height="512" viewBox="0 0 64 64" width="512" xmlns="http://www.w3.org/2000/svg"><path d="m15 24 4 34h26l4-34" fill="#c7e2fc"/><path d="m15 20v-1c0-9.389 7.611-17 17-17s17 7.611 17 17v1" fill="#c7e2fc"/><path d="m39 12h-14c-1.105 0-2 .895-2 2 0 1.105.895 2 2 2h14c1.105 0 2-.895 2-2 0-1.105-.895-2-2-2z" fill="#f097d0"/><path d="m41 16h-18c-1.105 0-2 .895-2 2 0 1.105.895 2 2 2h18c1.105 0 2-.895 2-2 0-1.105-.895-2-2-2z" fill="#d6759e"/><path d="m27 10c0-1.105.895-2 2-2h1c1.657 0 3-1.343 3-3v-1l1.6 1.2c1.511 1.133 2.4 2.911 2.4 4.8 0 1.105-.895 2-2 2h-6c-1.105 0-2-.895-2-2z" fill="#d6759e"/><path d="m21 58v4h22v-4" fill="#8892a0"/><path d="m40.881 30c-3.218 0-6.4.675-9.341 1.982l-.079.035c-2.942 1.308-6.124 1.983-9.342 1.983h-5.943l2.824 24h26l3.294-28z" fill="#d6759e"/><path d="m13 20h38v4h-38z" fill="#8892a0"/><path d="m31.54 31.982-.079.035c-2.942 1.308-6.124 1.983-9.342 1.983h-5.943l2.223 18.893c.691.071 1.392.107 2.101.107 11.322 0 20.5-9.19 20.5-20.527 0-.838-.065-1.66-.163-2.472-3.203.006-6.37.68-9.297 1.981z" fill="#f097d0"/></svg>