<?xml version="1.0" encoding="iso-8859-1"?>
<!-- Generator: Adobe Illustrator 19.0.0, SVG Export Plug-In . SVG Version: 6.00 Build 0)  -->
<svg version="1.1" id="Capa_1" xmlns="http://www.w3.org/2000/svg" xmlns:xlink="http://www.w3.org/1999/xlink" x="0px" y="0px"
	 viewBox="0 0 512 512" style="enable-background:new 0 0 512 512;" xml:space="preserve">
<path style="fill:#96C8EF;" d="M356.14,473.635c0,15.421-36.6,28.207-84.454,30.524c-5.101,0.248-10.331,0.378-15.66,0.378
	c-55.292,0-100.114-13.841-100.114-30.902c0-17.072,44.823-30.903,100.114-30.903c5.329,0,10.559,0.129,15.66,0.378
	C319.542,445.427,356.14,458.204,356.14,473.635z"/>
<g>
	<path style="fill:#C2DFF6;" d="M356.14,473.635c0,15.421-36.6,28.207-84.454,30.524c-47.855-2.317-84.454-15.103-84.454-30.524
		c0-15.432,36.6-28.208,84.454-30.525C319.542,445.427,356.14,458.204,356.14,473.635z"/>
	<path style="fill:#C2DFF6;" d="M288.092,342.311v122.943c0,2.764-2.108,5.081-4.862,5.319c-3.758,0.329-7.616,0.586-11.544,0.775
		c-5.101,0.248-10.331,0.378-15.66,0.378c-9.426,0-18.554-0.398-27.204-1.153c-2.754-0.239-4.862-2.556-4.862-5.319V342.311H288.092
		z"/>
</g>
<path style="fill:#96C8EF;" d="M501.932,158.905v23.664c0,39.652-11.007,77.663-30.793,110.365
	c-19.776,32.702-48.352,60.084-83.47,78.488c-30.535,15.998-64.489,24.36-98.961,24.36h-65.364c-17.231,0-34.342-2.088-50.957-6.185
	c-16.615-4.086-32.732-10.171-48.004-18.176C54.138,334.624,10.122,261.873,10.122,182.57v-23.664h491.81V158.905z"/>
<path style="fill:#C2DFF6;" d="M501.932,158.905v23.664c0,39.652-11.007,77.663-30.793,110.365
	c-19.776,32.702-48.352,60.084-83.47,78.488c-30.535,15.998-64.489,24.36-98.961,24.36h-22.123c-17.231,0-34.342-2.088-50.947-6.185
	c-16.625-4.086-32.742-10.171-48.004-18.176C97.389,334.624,53.372,261.873,53.372,182.57v-23.664h448.56V158.905z"/>
<ellipse style="fill:#78B9EB;" cx="256.026" cy="158.9" rx="245.904" ry="45.872"/>
<path style="fill:#FF728B;" d="M470.582,181.327c-18.822,6.254-45.26,11.603-76.978,15.601c-32.791,4.136-71.22,6.841-112.692,7.616
	c-8.183,0.149-16.485,0.228-24.887,0.228c-6.234,0-12.418-0.04-18.544-0.13c0.199-25.036,8.203-48.213,21.705-67.213
	c6.473-9.088,14.188-17.221,22.908-24.141c20.105-15.968,45.528-25.493,73.189-25.493c19.637,0,38.141,4.802,54.427,13.314
	c13.662,7.109,25.742,16.833,35.605,28.506C457.667,144.23,466.525,161.899,470.582,181.327z"/>
<path style="fill:#FF3F62;" d="M413.61,131.245c0,24.32-7.368,46.92-20.005,65.682c-32.791,4.136-71.22,6.841-112.692,7.616
	c-8.183,0.149-16.485,0.228-24.887,0.228c-6.234,0-12.418-0.04-18.544-0.13c0.199-25.036,8.203-48.213,21.705-67.213
	c6.473-9.088,14.188-17.221,22.908-24.141c20.105-15.968,45.528-25.493,73.189-25.493c19.637,0,38.141,4.802,54.427,13.314
	c1.998,7.546,3.262,15.402,3.709,23.465C413.55,126.78,413.61,129.008,413.61,131.245z"/>
<path style="fill:#FF9811;" d="M498.889,30.584c0,6.97-3.122,13.87-9.048,18.404l-0.666,0.508l-36.053,27.582l-30.872,23.604
	l-36.142,27.651l-58.533,44.762c-10.102,7.725-24.678,5.787-32.403-4.315c-3.192-4.176-4.733-9.107-4.733-14.009
	c0-6.959,3.122-13.861,9.048-18.394l27.164-20.771l37.952-29.033l29.202-22.342l37.732-28.864l30.216-23.107
	c10.103-7.715,24.678-5.776,32.403,4.325C497.349,20.751,498.889,25.682,498.889,30.584z"/>
<g>
	<polygon style="fill:#781900;" points="489.176,49.495 453.123,77.076 395.554,64.499 393.804,64.23 431.537,35.366 
		434.002,35.993 488.36,49.256 	"/>
	<polygon style="fill:#781900;" points="422.25,100.681 386.108,128.331 330.598,116.201 326.65,115.604 364.602,86.571 
		369.046,87.695 	"/>
</g>
<path style="fill:#891C00;" d="M373.839,125.279c0,29.123-10.569,55.79-28.088,76.35c-20.422,1.492-42.177,2.486-64.837,2.914
	c-8.183,0.149-16.485,0.228-24.887,0.228c-6.234,0-12.418-0.04-18.544-0.13c-15.461-0.219-30.515-0.696-45.051-1.412
	c-8.918-0.447-17.639-0.984-26.129-1.611c-17.519-20.562-28.088-47.219-28.088-76.341c0-2.237,0.059-4.464,0.189-6.672
	c0.567-10.142,2.406-19.935,5.399-29.232c15.162-47.506,59.676-81.909,112.224-81.909c25.553,0,49.207,8.133,68.505,21.954
	c28.158,20.164,47.069,52.418,49.117,89.187C373.779,120.815,373.839,123.042,373.839,125.279z"/>
<path style="fill:#AB2300;" d="M373.839,125.279c0,29.123-10.569,55.79-28.088,76.35c-20.422,1.492-42.177,2.486-64.837,2.914
	c-8.183,0.149-16.485,0.228-24.887,0.228c-6.234,0-12.418-0.04-18.544-0.13c-15.461-0.219-30.515-0.696-45.051-1.412
	c-10.44-17.589-16.436-38.12-16.436-60.054c0-2.237,0.059-4.464,0.189-6.672c0.567-10.142,2.406-19.935,5.399-29.232
	c15.162-47.506,59.676-81.909,112.224-81.909c10.629,0,20.93,1.412,30.723,4.057c28.158,20.164,47.069,52.418,49.117,89.187
	C373.779,120.815,373.839,123.042,373.839,125.279z"/>
<path style="fill:#FF3F62;" d="M280.914,204.543c-8.183,0.149-16.485,0.228-24.887,0.228c-6.234,0-12.418-0.04-18.544-0.13
	c-24.946-0.348-48.859-1.382-71.18-3.022c-29.56-2.157-56.336-5.359-79.035-9.356c-15.253-2.685-28.665-5.727-39.841-9.068
	c4.016-20.91,13.572-39.85,27.094-55.242c17.559-20.035,41.819-34.064,69.281-38.578c6.274-1.044,12.727-1.581,19.299-1.581
	c25.543,0,49.177,8.123,68.476,21.944c1.561,1.104,3.083,2.258,4.583,3.441c8.78,6.94,16.544,15.113,23.027,24.251
	C272.691,156.4,280.695,179.547,280.914,204.543z"/>
<path style="fill:#FF728B;" d="M280.914,204.543c-8.183,0.149-16.485,0.228-24.887,0.228c-6.234,0-12.418-0.04-18.544-0.13
	c-24.946-0.348-48.859-1.382-71.18-3.022c-29.56-2.157-56.336-5.359-79.035-9.356c4.762-17.42,13.443-33.219,25.036-46.413
	c17.559-20.035,41.819-34.064,69.281-38.578c6.274-1.044,12.727-1.581,19.299-1.581c10.619,0,20.91,1.402,30.694,4.047
	c1.561,1.104,3.083,2.258,4.583,3.441c8.78,6.94,16.544,15.113,23.027,24.251C272.691,156.4,280.695,179.547,280.914,204.543z"/>
<path d="M295.549,437.722v-34.591c7.179-0.219,14.367-0.796,21.456-1.711c4.087-0.527,6.97-4.266,6.443-8.352
	c-0.527-4.087-4.266-6.98-8.353-6.443c-17.619,2.277-26.637,1.8-98.453,1.581c-2.406,0.616-53.831-1.193-101.446-30.594
	c-3.51-2.167-8.103-1.073-10.27,2.426c-2.158,3.51-1.073,8.103,2.426,10.26c33.417,20.621,71.24,31.637,109.152,32.831v34.591
	c-35.108,4.514-68.048,15.68-68.048,35.913c0,8.352,5.996,20.154,34.581,28.973c40.501,12.514,105.424,12.531,145.98,0
	c28.586-8.819,34.581-20.621,34.581-28.973C363.597,450.05,319.032,440.756,295.549,437.722z M231.418,403.24h49.217v60.064
	c-7.974,0.646-16.227,0.964-24.608,0.964c-8.382,0-16.634-0.318-24.609-0.964V403.24z M324.622,488.36
	c-37.606,11.599-99.351,11.672-137.191,0c-17.658-5.449-24.062-11.792-24.062-14.725c0-2.158,4.047-7.696,19.359-13.164
	c9.306-3.331,20.869-5.956,33.775-7.715v17.349c0,3.817,2.884,7.02,6.681,7.417c21.096,2.213,44.544,2.217,65.682,0
	c3.798-0.398,6.681-3.599,6.681-7.417v-17.349c12.707,1.74,24.131,4.315,33.378,7.576c15.63,5.508,19.756,11.117,19.756,13.304
	C348.683,476.568,342.281,482.912,324.622,488.36z"/>
<path d="M493.818,241.301c-3.908-1.273-8.123,0.864-9.396,4.782c-22.13,68.182-76.413,117.047-141.128,134.874
	c-8.33,2.271-6.688,14.646,1.969,14.646c7.499,0,116.016-29.927,153.348-144.906C499.883,246.78,497.736,242.575,493.818,241.301z"
	/>
<path d="M509.35,158.146c-0.821-18.715-33.14-28.357-51.196-33.106c-0.004,0.004-0.008,0.009-0.012,0.013
	c-2.815-0.736-5.737-1.456-8.778-2.161c-6.036-6.87-12.737-12.985-19.965-18.294c9.658-7.387,55.146-42.176,64.976-49.694
	c7.607-5.817,11.971-14.686,11.971-24.32c0-16.603-13.325-30.505-30.594-30.505c-6.761,0-13.164,2.158-18.523,6.264l-87.297,66.765
	c-6.006-13.105-14.288-25.185-24.578-35.655c-2.894-2.933-7.607-2.973-10.55-0.089c-2.933,2.884-2.973,7.606-0.089,10.55
	c39.747,40.425,41.891,103.56,7.337,146.497c-17.998,1.287-37.424,2.12-53.969,2.516c-4.627-67.564-62.959-120.772-132.995-116.33
	c27.218-61.851,102.08-83.458,157.742-49.943c3.53,2.118,8.113,0.974,10.241-2.545c2.118-3.529,0.984-8.113-2.545-10.241
	c-41.61-25.035-96.77-24.637-139.07,6.75c-20.054,14.884-34.968,34.939-43.311,58.215c-8.719,1.76-17.251,4.455-25.393,8.034
	c-3.768,1.66-5.479,6.065-3.828,9.833c1.66,3.768,6.065,5.488,9.833,3.829c70.043-30.791,148.722,17.413,154.391,92.677
	c-60.39,0.967-157.541-3.251-216.902-19.279c6.1-23.6,19.911-44.322,38.628-59.05c3.287-2.584,3.749-7.29,1.243-10.469
	c-2.555-3.242-7.238-3.798-10.479-1.243c-5.359,4.226-10.41,8.929-15.014,13.979c-4.022,0.843-7.861,1.714-11.539,2.607
	c0.002-0.004,0.003-0.008,0.005-0.013c-19.365,4.676-56.427,15.093-56.427,35.168c1.77,9.226-14.236,115.407,79.652,193.397
	c1.392,1.154,3.083,1.72,4.762,1.72c6.92,0,10.151-8.718,4.762-13.194c-47.189-39.204-74.263-96.892-74.263-158.259v-3.41
	c35.767,21.224,145.829,31.784,183.448,31.925c15.333,0.657,29.223,0.894,29.338,0.897c21.929,3.064,154.751-1.356,223.017-18.017
	c0.01,0,0.02-0.01,0.02-0.01c13.097-3.309,29.309-7.869,41.073-14.875c-0.089,2.267,0.596,18.046-3.102,39.105
	c-0.716,4.057,1.998,7.924,6.055,8.63c3.997,0.726,7.914-1.949,8.63-6.045c2.207-12.567,3.331-25.424,3.331-38.2
	C509.379,156.947,509.417,158.715,509.35,158.146z M17.594,159.113c-0.238-1.773,3.083-4.486,4.538-5.549
	c5.177-3.731,15.475-8.71,34.373-13.758c-6.483,10.479-11.394,21.865-14.536,33.785C35.966,171.511,18.354,164.622,17.594,159.113z
	 M475.752,14.993c8.872,0,15.68,7.07,15.68,15.591c0,4.064-1.521,7.843-4.212,10.717l-38.787-9.46
	C464.586,20.434,467.235,14.993,475.752,14.993z M433.215,43.48l39.083,9.533l-20.965,16.035l-40.098-8.758L433.215,43.48z
	 M395.709,72.165l40.099,8.758l-15.256,11.669l-39.079-9.539L395.709,72.165z M405.329,104.227
	c-17.28,13.218-22.379,17.119-23.676,18.11c0.004-0.004-0.023,0.017-0.078,0.059c-0.013,0.01-0.028,0.022-0.04,0.031
	c-0.004,0.003-0.007,0.005-0.011,0.008c0.002-0.001,0.004-0.003,0.006-0.004c-0.01,0.007-0.021,0.016-0.03,0.023
	c-0.034,0.026-0.072,0.055-0.121,0.092c-0.005,0.004-0.012,0.009-0.016,0.013c-0.013,0.01-0.022,0.017-0.032,0.025
	c0.004-0.003,0.009-0.007,0.013-0.01c-0.014,0.011-0.028,0.022-0.043,0.033c0.003-0.002,0.005-0.004,0.008-0.006
	c-0.011,0.008-0.02,0.015-0.027,0.021c-0.006,0.005-0.012,0.009-0.015,0.011c-0.169-8.616-1.211-16.738-3.053-25.026
	L405.329,104.227z M361.5,192.87c9.794-15.302,16.167-32.572,18.633-50.589l36.848-28.178
	c17.988,12.026,37.674,37.459,45.298,61.982C431.998,185.096,389.608,190.499,361.5,192.87z M494.456,158.671
	c0.031,0.21,0.03,0.453-0.079,0.801c-0.682,2.169-5.125,6.519-17.555,11.585c-3.413-8.569-10.1-23.153-13.606-29.074
	C494.498,151.476,495.192,159.618,494.456,158.671z"/>
<g>
</g>
<g>
</g>
<g>
</g>
<g>
</g>
<g>
</g>
<g>
</g>
<g>
</g>
<g>
</g>
<g>
</g>
<g>
</g>
<g>
</g>
<g>
</g>
<g>
</g>
<g>
</g>
<g>
</g>
</svg>
